# xmcd
#
# Track frame offsets:
#  150
#  16304
#  38428
#  58738
#  78772
#  102161
#  124900
#  146434
#  169359
#  186179
#  201667
#  224404
#  237488
#  256768
#  270009
#  287884
#
# Disc length: 4092 seconds
#
# Revision: 0
# Processed by: cddbd v1.4PL0 Copyright (c) Steve Scherf et al.
# Submitted via: AltoMP3_Maker 3.0
#
DISCID=e50ffa10
DTITLE=韩红 - 韩红醒了
DYEAR=1900
DGENRE=
TTITLE0=醒了
TTITLE1=斜堂（藏译）歌曲
TTITLE2=那片海
TTITLE3=你不会来
TTITLE4=天空
TTITLE5=穿行
TTITLE6=那个冬季
TTITLE7=雪
TTITLE8=天亮了
TTITLE9=青藏高原
TTITLE10=家乡
TTITLE11=雪域光芒
TTITLE12=希望
TTITLE13=突然想流泪
TTITLE14=大哥
TTITLE15=风雨中的美丽
EXTD=
EXTT0=
EXTT1=
EXTT2=
EXTT3=
EXTT4=
EXTT5=
EXTT6=
EXTT7=
EXTT8=
EXTT9=
EXTT10=
EXTT11=
EXTT12=
EXTT13=
EXTT14=
EXTT15=
PLAYORDER=
